<mxfile host="Electron" agent="Mozilla/5.0 (Windows NT 10.0; Win64; x64) AppleWebKit/537.36 (KHTML, like Gecko) draw.io/27.0.9 Chrome/134.0.6998.205 Electron/35.4.0 Safari/537.36" version="27.0.9">
  <diagram name="Page-1" id="C_JNYoE7No1MLvvb6G3v">
    <mxGraphModel dx="1042" dy="626" grid="1" gridSize="10" guides="1" tooltips="1" connect="1" arrows="0" fold="1" page="1" pageScale="1" pageWidth="850" pageHeight="1100" math="0" shadow="0">
      <root>
        <mxCell id="0" />
        <mxCell id="1" parent="0" />
        <mxCell id="DfDB8P3MguBSF3w1Sgxa-1" value="" style="rounded=0;whiteSpace=wrap;html=1;fillColor=none;dashed=1;strokeColor=#FF9999;" parent="1" vertex="1">
          <mxGeometry x="15" y="170" width="170" height="550" as="geometry" />
        </mxCell>
        <mxCell id="DfDB8P3MguBSF3w1Sgxa-2" value="&lt;font style=&quot;font-size: 24px;&quot;&gt;Sources&lt;/font&gt;&lt;div&gt;&lt;br&gt;&lt;/div&gt;" style="rounded=0;whiteSpace=wrap;html=1;fillColor=default;" parent="1" vertex="1">
          <mxGeometry x="40" y="140" width="120" height="40" as="geometry" />
        </mxCell>
        <mxCell id="DfDB8P3MguBSF3w1Sgxa-4" value="" style="rounded=0;whiteSpace=wrap;html=1;fillColor=none;dashed=1;strokeColor=light-dark(#006EAF, #3b3b3b);" parent="1" vertex="1">
          <mxGeometry x="210" y="160" width="560" height="680" as="geometry" />
        </mxCell>
        <mxCell id="DfDB8P3MguBSF3w1Sgxa-5" value="&lt;div&gt;&lt;span style=&quot;font-size: 24px;&quot;&gt;Data Warhouse&lt;/span&gt;&lt;/div&gt;" style="rounded=0;whiteSpace=wrap;html=1;fillColor=none;" parent="1" vertex="1">
          <mxGeometry x="400" y="140" width="200" height="40" as="geometry" />
        </mxCell>
        <mxCell id="DfDB8P3MguBSF3w1Sgxa-7" value="" style="rounded=0;whiteSpace=wrap;html=1;fillColor=none;dashed=1;strokeColor=#FF9999;" parent="1" vertex="1">
          <mxGeometry x="790" y="170" width="170" height="380" as="geometry" />
        </mxCell>
        <mxCell id="DfDB8P3MguBSF3w1Sgxa-8" value="&lt;div&gt;&lt;span style=&quot;font-size: 24px;&quot;&gt;Consume&lt;/span&gt;&lt;/div&gt;" style="rounded=0;whiteSpace=wrap;html=1;fillColor=default;" parent="1" vertex="1">
          <mxGeometry x="815" y="145" width="120" height="30" as="geometry" />
        </mxCell>
        <mxCell id="DfDB8P3MguBSF3w1Sgxa-10" value="&lt;font style=&quot;font-size: 24px;&quot;&gt;Bronze Layer&lt;/font&gt;" style="rounded=0;whiteSpace=wrap;html=1;strokeColor=#006EAF;fillColor=#FFCC99;fontColor=#ffffff;" parent="1" vertex="1">
          <mxGeometry x="220" y="190" width="160" height="30" as="geometry" />
        </mxCell>
        <mxCell id="DfDB8P3MguBSF3w1Sgxa-12" value="" style="rounded=0;whiteSpace=wrap;html=1;strokeColor=light-dark(#006EAF, #3b3b3b);fillColor=none;fontColor=#ffffff;" parent="1" vertex="1">
          <mxGeometry x="220" y="240" width="160" height="550" as="geometry" />
        </mxCell>
        <mxCell id="DfDB8P3MguBSF3w1Sgxa-13" value="&lt;font style=&quot;font-size: 24px;&quot;&gt;Silver Layer&lt;/font&gt;" style="rounded=0;whiteSpace=wrap;html=1;strokeColor=#006EAF;fillColor=#CCCCCC;fontColor=#ffffff;" parent="1" vertex="1">
          <mxGeometry x="410" y="190" width="160" height="30" as="geometry" />
        </mxCell>
        <mxCell id="DfDB8P3MguBSF3w1Sgxa-15" value="&amp;nbsp;&amp;nbsp;&lt;div&gt;&lt;br&gt;&lt;/div&gt;&lt;div&gt;&lt;br&gt;&lt;/div&gt;&lt;div&gt;&lt;br&gt;&lt;/div&gt;&lt;div&gt;&lt;br&gt;&lt;/div&gt;&lt;div&gt;&lt;br&gt;&lt;/div&gt;&lt;div&gt;&lt;br&gt;&lt;/div&gt;&lt;div&gt;&lt;br&gt;&lt;/div&gt;&lt;div&gt;&lt;br&gt;&lt;/div&gt;&lt;div&gt;&lt;br&gt;&lt;/div&gt;&lt;div&gt;&lt;br&gt;&lt;/div&gt;&lt;div&gt;&lt;br&gt;&lt;/div&gt;&lt;div&gt;&lt;br&gt;&lt;/div&gt;&lt;div&gt;&lt;br&gt;&lt;/div&gt;&lt;div&gt;&lt;br&gt;&lt;/div&gt;&lt;div&gt;&lt;br&gt;&lt;/div&gt;&lt;div&gt;&lt;br&gt;&lt;/div&gt;&lt;div&gt;&lt;br&gt;&lt;/div&gt;&lt;div&gt;&lt;br&gt;&lt;/div&gt;&lt;div&gt;&lt;br&gt;&lt;/div&gt;&lt;div&gt;&lt;br&gt;&lt;/div&gt;&lt;div&gt;&lt;br&gt;&lt;b style=&quot;forced-color-adjust: none; box-shadow: none !important; color: rgb(255, 255, 255); font-family: Helvetica; font-size: 12px; font-style: normal; font-variant-ligatures: normal; font-variant-caps: normal; letter-spacing: normal; orphans: 2; text-align: center; text-indent: 0px; text-transform: none; widows: 2; word-spacing: 0px; -webkit-text-stroke-width: 0px; white-space: normal; background-color: rgb(27, 29, 30); text-decoration-thickness: initial; text-decoration-style: initial; text-decoration-color: initial;&quot;&gt;Object Type&lt;/b&gt;&lt;span style=&quot;color: rgb(255, 255, 255); font-family: Helvetica; font-size: 12px; font-style: normal; font-variant-ligatures: normal; font-variant-caps: normal; font-weight: 400; letter-spacing: normal; orphans: 2; text-align: center; text-indent: 0px; text-transform: none; widows: 2; word-spacing: 0px; -webkit-text-stroke-width: 0px; white-space: normal; background-color: rgb(27, 29, 30); text-decoration-thickness: initial; text-decoration-style: initial; text-decoration-color: initial; display: inline !important; float: none;&quot;&gt;: Tables&lt;/span&gt;&lt;div style=&quot;forced-color-adjust: none; box-shadow: none !important; color: rgb(255, 255, 255); font-family: Helvetica; font-size: 12px; font-style: normal; font-variant-ligatures: normal; font-variant-caps: normal; font-weight: 400; letter-spacing: normal; orphans: 2; text-align: center; text-indent: 0px; text-transform: none; widows: 2; word-spacing: 0px; -webkit-text-stroke-width: 0px; white-space: normal; background-color: rgb(27, 29, 30); text-decoration-thickness: initial; text-decoration-style: initial; text-decoration-color: initial;&quot;&gt;&lt;br style=&quot;forced-color-adjust: none; box-shadow: none !important;&quot;&gt;&lt;/div&gt;&lt;div style=&quot;forced-color-adjust: none; box-shadow: none !important; color: rgb(255, 255, 255); font-family: Helvetica; font-size: 12px; font-style: normal; font-variant-ligatures: normal; font-variant-caps: normal; font-weight: 400; letter-spacing: normal; orphans: 2; text-align: center; text-indent: 0px; text-transform: none; widows: 2; word-spacing: 0px; -webkit-text-stroke-width: 0px; white-space: normal; background-color: rgb(27, 29, 30); text-decoration-thickness: initial; text-decoration-style: initial; text-decoration-color: initial;&quot;&gt;&lt;b style=&quot;forced-color-adjust: none; box-shadow: none !important;&quot;&gt;Load&lt;/b&gt;:&lt;/div&gt;&lt;ul style=&quot;forced-color-adjust: none; box-shadow: none !important; color: rgb(255, 255, 255); font-family: Helvetica; font-size: 12px; font-style: normal; font-variant-ligatures: normal; font-variant-caps: normal; font-weight: 400; letter-spacing: normal; orphans: 2; text-align: center; text-indent: 0px; text-transform: none; widows: 2; word-spacing: 0px; -webkit-text-stroke-width: 0px; white-space: normal; background-color: rgb(27, 29, 30); text-decoration-thickness: initial; text-decoration-style: initial; text-decoration-color: initial;&quot;&gt;&lt;li style=&quot;forced-color-adjust: none; box-shadow: none !important; text-align: left;&quot;&gt;&lt;span style=&quot;forced-color-adjust: none; box-shadow: none !important; background-color: transparent; color: light-dark(rgb(0, 0, 0), rgb(255, 255, 255));&quot;&gt;Batch Processing&lt;/span&gt;&lt;/li&gt;&lt;li style=&quot;forced-color-adjust: none; box-shadow: none !important; text-align: left;&quot;&gt;&lt;span style=&quot;forced-color-adjust: none; box-shadow: none !important; background-color: transparent; color: light-dark(rgb(0, 0, 0), rgb(255, 255, 255));&quot;&gt;Full Load&lt;/span&gt;&lt;/li&gt;&lt;li style=&quot;forced-color-adjust: none; box-shadow: none !important; text-align: left;&quot;&gt;&lt;span style=&quot;forced-color-adjust: none; box-shadow: none !important; background-color: transparent; color: light-dark(rgb(0, 0, 0), rgb(255, 255, 255));&quot;&gt;Truncate &amp;amp; Insert&lt;/span&gt;&lt;/li&gt;&lt;/ul&gt;&lt;span style=&quot;forced-color-adjust: none; box-shadow: none !important; color: light-dark(rgb(0, 0, 0), rgb(255, 255, 255)); font-family: Helvetica; font-size: 12px; font-style: normal; font-variant-ligatures: normal; font-variant-caps: normal; font-weight: 400; letter-spacing: normal; orphans: 2; text-align: center; text-indent: 0px; text-transform: none; widows: 2; word-spacing: 0px; -webkit-text-stroke-width: 0px; white-space: normal; background-color: transparent; text-decoration-thickness: initial; text-decoration-style: initial; text-decoration-color: initial;&quot;&gt;&lt;b style=&quot;forced-color-adjust: none; box-shadow: none !important;&quot;&gt;Transformations&lt;/b&gt;:&lt;/span&gt;&lt;div style=&quot;forced-color-adjust: none; box-shadow: none !important; color: rgb(255, 255, 255); font-family: Helvetica; font-size: 12px; font-style: normal; font-variant-ligatures: normal; font-variant-caps: normal; font-weight: 400; letter-spacing: normal; orphans: 2; text-align: center; text-indent: 0px; text-transform: none; widows: 2; word-spacing: 0px; -webkit-text-stroke-width: 0px; white-space: normal; background-color: rgb(27, 29, 30); text-decoration-thickness: initial; text-decoration-style: initial; text-decoration-color: initial;&quot;&gt;&lt;ul style=&quot;forced-color-adjust: none; box-shadow: none !important;&quot;&gt;&lt;li style=&quot;forced-color-adjust: none; box-shadow: none !important; text-align: left;&quot;&gt;&lt;span style=&quot;forced-color-adjust: none; box-shadow: none !important; background-color: transparent; color: light-dark(rgb(0, 0, 0), rgb(255, 255, 255));&quot;&gt;Data Cleansing&lt;/span&gt;&lt;/li&gt;&lt;li style=&quot;forced-color-adjust: none; box-shadow: none !important; text-align: left;&quot;&gt;&lt;span style=&quot;forced-color-adjust: none; box-shadow: none !important; background-color: transparent; color: light-dark(rgb(0, 0, 0), rgb(255, 255, 255));&quot;&gt;Data Standrization&lt;/span&gt;&lt;/li&gt;&lt;li style=&quot;forced-color-adjust: none; box-shadow: none !important; text-align: left;&quot;&gt;&lt;span style=&quot;forced-color-adjust: none; box-shadow: none !important; background-color: transparent; color: light-dark(rgb(0, 0, 0), rgb(255, 255, 255));&quot;&gt;Data Normalization&lt;/span&gt;&lt;/li&gt;&lt;li style=&quot;forced-color-adjust: none; box-shadow: none !important; text-align: left;&quot;&gt;&lt;span style=&quot;forced-color-adjust: none; box-shadow: none !important; background-color: transparent; color: light-dark(rgb(0, 0, 0), rgb(255, 255, 255));&quot;&gt;Derived Columns&lt;/span&gt;&lt;/li&gt;&lt;li style=&quot;forced-color-adjust: none; box-shadow: none !important; text-align: left;&quot;&gt;&lt;span style=&quot;forced-color-adjust: none; box-shadow: none !important; background-color: transparent; color: light-dark(rgb(0, 0, 0), rgb(255, 255, 255));&quot;&gt;Data Enrichment&lt;/span&gt;&lt;/li&gt;&lt;/ul&gt;&lt;span style=&quot;forced-color-adjust: none; box-shadow: none !important; background-color: transparent; color: light-dark(rgb(0, 0, 0), rgb(255, 255, 255));&quot;&gt;&lt;b style=&quot;forced-color-adjust: none; box-shadow: none !important;&quot;&gt;Data Model&lt;/b&gt;: None(as-is)&lt;/span&gt;&lt;/div&gt;&lt;br&gt;&lt;br&gt;&lt;/div&gt;" style="rounded=0;whiteSpace=wrap;html=1;strokeColor=#CCCCCC;fillColor=none;fontColor=#ffffff;" parent="1" vertex="1">
          <mxGeometry x="410" y="240" width="160" height="550" as="geometry" />
        </mxCell>
        <mxCell id="DfDB8P3MguBSF3w1Sgxa-16" value="&lt;font style=&quot;font-size: 24px;&quot;&gt;Gold Layer&lt;/font&gt;" style="rounded=0;whiteSpace=wrap;html=1;strokeColor=#006EAF;fillColor=#FFD966;fontColor=#ffffff;" parent="1" vertex="1">
          <mxGeometry x="600" y="190" width="160" height="30" as="geometry" />
        </mxCell>
        <mxCell id="DfDB8P3MguBSF3w1Sgxa-17" value="&lt;br&gt;&lt;b style=&quot;forced-color-adjust: none; box-shadow: none !important; font-family: Helvetica; font-size: 12px; font-style: normal; font-variant-ligatures: normal; font-variant-caps: normal; letter-spacing: normal; orphans: 2; text-align: center; text-indent: 0px; text-transform: none; widows: 2; word-spacing: 0px; -webkit-text-stroke-width: 0px; white-space: normal; text-decoration-thickness: initial; text-decoration-style: initial; text-decoration-color: initial; color: rgb(255, 255, 255); background-color: rgb(27, 29, 30);&quot;&gt;&lt;br&gt;&lt;br&gt;&lt;br&gt;&lt;br&gt;&lt;br&gt;&lt;br&gt;&lt;br&gt;&lt;br&gt;&lt;br&gt;&lt;br&gt;&lt;br&gt;&lt;br&gt;&lt;br&gt;&lt;br&gt;&lt;br&gt;&lt;br&gt;&lt;br&gt;&lt;br&gt;&lt;br&gt;&lt;br&gt;&lt;br&gt;&lt;br&gt;&lt;/b&gt;&lt;div&gt;&lt;b style=&quot;forced-color-adjust: none; box-shadow: none !important; font-family: Helvetica; font-size: 12px; font-style: normal; font-variant-ligatures: normal; font-variant-caps: normal; letter-spacing: normal; orphans: 2; text-align: center; text-indent: 0px; text-transform: none; widows: 2; word-spacing: 0px; -webkit-text-stroke-width: 0px; white-space: normal; text-decoration-thickness: initial; text-decoration-style: initial; text-decoration-color: initial; color: rgb(255, 255, 255); background-color: rgb(27, 29, 30);&quot;&gt;Object Type&lt;/b&gt;&lt;span style=&quot;forced-color-adjust: none; box-shadow: none !important; font-family: Helvetica; font-size: 12px; font-style: normal; font-variant-ligatures: normal; font-variant-caps: normal; font-weight: 400; letter-spacing: normal; orphans: 2; text-align: center; text-indent: 0px; text-transform: none; widows: 2; word-spacing: 0px; -webkit-text-stroke-width: 0px; white-space: normal; text-decoration-thickness: initial; text-decoration-style: initial; text-decoration-color: initial; color: rgb(255, 255, 255); background-color: rgb(27, 29, 30); float: none; display: inline !important;&quot;&gt;: Views&lt;/span&gt;&lt;div style=&quot;forced-color-adjust: none; box-shadow: none !important; font-family: Helvetica; font-size: 12px; font-style: normal; font-variant-ligatures: normal; font-variant-caps: normal; font-weight: 400; letter-spacing: normal; orphans: 2; text-align: center; text-indent: 0px; text-transform: none; widows: 2; word-spacing: 0px; -webkit-text-stroke-width: 0px; white-space: normal; text-decoration-thickness: initial; text-decoration-style: initial; text-decoration-color: initial; color: rgb(255, 255, 255); background-color: rgb(27, 29, 30);&quot;&gt;&lt;br style=&quot;forced-color-adjust: none; box-shadow: none !important;&quot;&gt;&lt;/div&gt;&lt;div style=&quot;forced-color-adjust: none; font-family: Helvetica; font-size: 12px; font-style: normal; font-variant-ligatures: normal; font-variant-caps: normal; letter-spacing: normal; orphans: 2; text-align: center; text-indent: 0px; text-transform: none; widows: 2; word-spacing: 0px; -webkit-text-stroke-width: 0px; white-space: normal; text-decoration-thickness: initial; text-decoration-style: initial; text-decoration-color: initial; color: rgb(255, 255, 255); background-color: rgb(27, 29, 30); box-shadow: none !important;&quot;&gt;&lt;span style=&quot;forced-color-adjust: none; box-shadow: none !important;&quot;&gt;No&lt;/span&gt;&lt;b style=&quot;font-weight: 400; forced-color-adjust: none; box-shadow: none !important;&quot;&gt; Load&lt;/b&gt;&lt;/div&gt;&lt;div style=&quot;forced-color-adjust: none; font-family: Helvetica; font-size: 12px; font-style: normal; font-variant-ligatures: normal; font-variant-caps: normal; letter-spacing: normal; orphans: 2; text-align: center; text-indent: 0px; text-transform: none; widows: 2; word-spacing: 0px; -webkit-text-stroke-width: 0px; white-space: normal; text-decoration-thickness: initial; text-decoration-style: initial; text-decoration-color: initial; color: rgb(255, 255, 255); background-color: rgb(27, 29, 30); box-shadow: none !important;&quot;&gt;&lt;span style=&quot;forced-color-adjust: none; box-shadow: none !important;&quot;&gt;&lt;b&gt;Transformations:&lt;/b&gt;&lt;/span&gt;&lt;/div&gt;&lt;ul style=&quot;forced-color-adjust: none; box-shadow: none !important; font-family: Helvetica; font-size: 12px; font-style: normal; font-variant-ligatures: normal; font-variant-caps: normal; font-weight: 400; letter-spacing: normal; orphans: 2; text-align: center; text-indent: 0px; text-transform: none; widows: 2; word-spacing: 0px; -webkit-text-stroke-width: 0px; white-space: normal; text-decoration-thickness: initial; text-decoration-style: initial; text-decoration-color: initial; color: rgb(255, 255, 255); background-color: rgb(27, 29, 30);&quot;&gt;&lt;li style=&quot;forced-color-adjust: none; box-shadow: none !important; text-align: left;&quot;&gt;&lt;span style=&quot;forced-color-adjust: none; box-shadow: none !important; background-color: transparent; color: light-dark(rgb(0, 0, 0), rgb(255, 255, 255));&quot;&gt;Data Integrations&lt;/span&gt;&lt;/li&gt;&lt;li style=&quot;forced-color-adjust: none; box-shadow: none !important; text-align: left;&quot;&gt;&lt;span style=&quot;forced-color-adjust: none; box-shadow: none !important; background-color: transparent; color: light-dark(rgb(0, 0, 0), rgb(255, 255, 255));&quot;&gt;Aggregations&lt;/span&gt;&lt;/li&gt;&lt;li style=&quot;forced-color-adjust: none; box-shadow: none !important; text-align: left;&quot;&gt;&lt;span style=&quot;forced-color-adjust: none; box-shadow: none !important; background-color: transparent; color: light-dark(rgb(0, 0, 0), rgb(255, 255, 255));&quot;&gt;Business Logics&lt;/span&gt;&lt;/li&gt;&lt;/ul&gt;&lt;span style=&quot;forced-color-adjust: none; box-shadow: none !important; font-family: Helvetica; font-size: 12px; font-style: normal; font-variant-ligatures: normal; font-variant-caps: normal; font-weight: 400; letter-spacing: normal; orphans: 2; text-align: center; text-indent: 0px; text-transform: none; widows: 2; word-spacing: 0px; -webkit-text-stroke-width: 0px; white-space: normal; background-color: transparent; text-decoration-thickness: initial; text-decoration-style: initial; text-decoration-color: initial; color: light-dark(rgb(0, 0, 0), rgb(255, 255, 255));&quot;&gt;&lt;b style=&quot;forced-color-adjust: none; box-shadow: none !important;&quot;&gt;Data Model&lt;/b&gt;:&lt;/span&gt;&lt;div style=&quot;forced-color-adjust: none; box-shadow: none !important; font-family: Helvetica; font-size: 12px; font-style: normal; font-variant-ligatures: normal; font-variant-caps: normal; font-weight: 400; letter-spacing: normal; orphans: 2; text-align: center; text-indent: 0px; text-transform: none; widows: 2; word-spacing: 0px; -webkit-text-stroke-width: 0px; white-space: normal; text-decoration-thickness: initial; text-decoration-style: initial; text-decoration-color: initial; color: rgb(255, 255, 255); background-color: rgb(27, 29, 30);&quot;&gt;&lt;ul style=&quot;forced-color-adjust: none; box-shadow: none !important;&quot;&gt;&lt;li style=&quot;forced-color-adjust: none; box-shadow: none !important; text-align: left;&quot;&gt;&lt;span style=&quot;forced-color-adjust: none; box-shadow: none !important; background-color: transparent; color: light-dark(rgb(0, 0, 0), rgb(255, 255, 255));&quot;&gt;Star Schema&lt;/span&gt;&lt;/li&gt;&lt;li style=&quot;forced-color-adjust: none; box-shadow: none !important; text-align: left;&quot;&gt;&lt;span style=&quot;forced-color-adjust: none; box-shadow: none !important; background-color: transparent; color: light-dark(rgb(0, 0, 0), rgb(255, 255, 255));&quot;&gt;Flat Table&lt;/span&gt;&lt;/li&gt;&lt;li style=&quot;forced-color-adjust: none; box-shadow: none !important; text-align: left;&quot;&gt;&lt;span style=&quot;forced-color-adjust: none; box-shadow: none !important; background-color: transparent; color: light-dark(rgb(0, 0, 0), rgb(255, 255, 255));&quot;&gt;Aggregated Table&lt;/span&gt;&lt;/li&gt;&lt;/ul&gt;&lt;br&gt;&lt;/div&gt;&lt;br&gt;&lt;br&gt;&lt;/div&gt;" style="rounded=0;whiteSpace=wrap;html=1;strokeColor=#FFD966;fillColor=none;fontColor=#ffffff;" parent="1" vertex="1">
          <mxGeometry x="600" y="240" width="160" height="550" as="geometry" />
        </mxCell>
        <mxCell id="8CIWE3akueIZHp80x-HF-1" value="CRM&lt;div&gt;&lt;br&gt;&lt;/div&gt;" style="image;aspect=fixed;html=1;points=[];align=center;fontSize=12;image=img/lib/azure2/general/Folder_Blank.svg;" parent="1" vertex="1">
          <mxGeometry x="65.5" y="230" width="49.29" height="40" as="geometry" />
        </mxCell>
        <mxCell id="8CIWE3akueIZHp80x-HF-2" value="" style="sketch=0;aspect=fixed;pointerEvents=1;shadow=0;dashed=0;html=1;strokeColor=none;labelPosition=center;verticalLabelPosition=bottom;verticalAlign=top;align=center;fillColor=#00188D;shape=mxgraph.azure.file" parent="1" vertex="1">
          <mxGeometry x="100" y="250" width="28.2" height="30" as="geometry" />
        </mxCell>
        <mxCell id="8CIWE3akueIZHp80x-HF-3" value="&lt;div&gt;ERP&lt;/div&gt;&lt;div&gt;&lt;br&gt;&lt;/div&gt;" style="image;aspect=fixed;html=1;points=[];align=center;fontSize=12;image=img/lib/azure2/general/Folder_Blank.svg;" parent="1" vertex="1">
          <mxGeometry x="65.5" y="320" width="49.29" height="40" as="geometry" />
        </mxCell>
        <mxCell id="8CIWE3akueIZHp80x-HF-4" value="" style="sketch=0;aspect=fixed;pointerEvents=1;shadow=0;dashed=0;html=1;strokeColor=none;labelPosition=center;verticalLabelPosition=bottom;verticalAlign=top;align=center;fillColor=#00188D;shape=mxgraph.azure.file" parent="1" vertex="1">
          <mxGeometry x="100" y="340" width="28.2" height="30" as="geometry" />
        </mxCell>
        <mxCell id="8CIWE3akueIZHp80x-HF-11" value="" style="endArrow=none;html=1;rounded=0;" parent="1" edge="1">
          <mxGeometry width="50" height="50" relative="1" as="geometry">
            <mxPoint x="50" y="440" as="sourcePoint" />
            <mxPoint x="150" y="440" as="targetPoint" />
            <Array as="points">
              <mxPoint x="40" y="440" />
            </Array>
          </mxGeometry>
        </mxCell>
        <mxCell id="8CIWE3akueIZHp80x-HF-13" value="" style="html=1;verticalLabelPosition=bottom;align=center;labelBackgroundColor=#ffffff;verticalAlign=top;strokeWidth=2;strokeColor=#3700CC;shadow=0;dashed=0;shape=mxgraph.ios7.icons.data;fillColor=#FFCC99;fontColor=#ffffff;" parent="1" vertex="1">
          <mxGeometry x="264" y="320" width="72" height="79.1" as="geometry" />
        </mxCell>
        <mxCell id="8CIWE3akueIZHp80x-HF-14" value="" style="html=1;verticalLabelPosition=bottom;align=center;labelBackgroundColor=#ffffff;verticalAlign=top;strokeWidth=2;strokeColor=#3700CC;shadow=0;dashed=0;shape=mxgraph.ios7.icons.data;fillColor=#CCCCCC;fontColor=#ffffff;" parent="1" vertex="1">
          <mxGeometry x="454" y="320" width="72" height="79.1" as="geometry" />
        </mxCell>
        <mxCell id="8CIWE3akueIZHp80x-HF-15" value="" style="html=1;verticalLabelPosition=bottom;align=center;labelBackgroundColor=#ffffff;verticalAlign=top;strokeWidth=2;strokeColor=#3700CC;shadow=0;dashed=0;shape=mxgraph.ios7.icons.data;fillColor=#FFFF66;fontColor=#ffffff;" parent="1" vertex="1">
          <mxGeometry x="648" y="320" width="72" height="79.1" as="geometry" />
        </mxCell>
        <mxCell id="8CIWE3akueIZHp80x-HF-16" value="" style="shape=singleArrow;whiteSpace=wrap;html=1;fillColor=#0050ef;fontColor=#ffffff;strokeColor=#001DBC;" parent="1" vertex="1">
          <mxGeometry x="370" y="325" width="60" height="60" as="geometry" />
        </mxCell>
        <mxCell id="8CIWE3akueIZHp80x-HF-17" value="" style="shape=singleArrow;whiteSpace=wrap;html=1;fillColor=#0050ef;fontColor=#ffffff;strokeColor=#001DBC;" parent="1" vertex="1">
          <mxGeometry x="560" y="325" width="60" height="60" as="geometry" />
        </mxCell>
        <mxCell id="8CIWE3akueIZHp80x-HF-18" value="" style="shape=singleArrow;whiteSpace=wrap;html=1;fillColor=#0050ef;fontColor=#ffffff;strokeColor=#001DBC;" parent="1" vertex="1">
          <mxGeometry x="750" y="329.55" width="60" height="60" as="geometry" />
        </mxCell>
        <mxCell id="8CIWE3akueIZHp80x-HF-19" value="" style="shape=singleArrow;whiteSpace=wrap;html=1;fillColor=#0050ef;fontColor=#ffffff;strokeColor=#001DBC;" parent="1" vertex="1">
          <mxGeometry x="170" y="330" width="60" height="60" as="geometry" />
        </mxCell>
        <mxCell id="8CIWE3akueIZHp80x-HF-20" value="&lt;font style=&quot;font-size: 24px;&quot;&gt;Raw Data&lt;/font&gt;" style="text;html=1;align=center;verticalAlign=middle;whiteSpace=wrap;rounded=0;" parent="1" vertex="1">
          <mxGeometry x="264" y="420" width="60" height="30" as="geometry" />
        </mxCell>
        <mxCell id="8CIWE3akueIZHp80x-HF-21" value="&lt;font style=&quot;font-size: 24px;&quot;&gt;Cleaned Standrized Data&lt;/font&gt;" style="text;html=1;align=center;verticalAlign=middle;whiteSpace=wrap;rounded=0;" parent="1" vertex="1">
          <mxGeometry x="454" y="440" width="60" height="30" as="geometry" />
        </mxCell>
        <mxCell id="8CIWE3akueIZHp80x-HF-22" value="&lt;span style=&quot;font-size: 24px;&quot;&gt;Bussiness Ready Data&lt;/span&gt;" style="text;html=1;align=center;verticalAlign=middle;whiteSpace=wrap;rounded=0;" parent="1" vertex="1">
          <mxGeometry x="610" y="440" width="140" height="30" as="geometry" />
        </mxCell>
        <mxCell id="JLLFpMMmMIS0TOfbjZkm-2" value="" style="endArrow=none;html=1;rounded=0;" parent="1" edge="1">
          <mxGeometry width="50" height="50" relative="1" as="geometry">
            <mxPoint x="440" y="510" as="sourcePoint" />
            <mxPoint x="540" y="510" as="targetPoint" />
            <Array as="points">
              <mxPoint x="430" y="510" />
            </Array>
          </mxGeometry>
        </mxCell>
        <mxCell id="JLLFpMMmMIS0TOfbjZkm-3" value="&lt;b&gt;Object Type: &lt;/b&gt;CSV&lt;div&gt;&lt;b&gt;Interface: &lt;/b&gt;Files in Folder&lt;/div&gt;" style="text;html=1;align=center;verticalAlign=middle;whiteSpace=wrap;rounded=0;" parent="1" vertex="1">
          <mxGeometry x="20" y="470" width="150" height="40" as="geometry" />
        </mxCell>
        <mxCell id="JLLFpMMmMIS0TOfbjZkm-4" value="&lt;b&gt;Object Type: &lt;/b&gt;Tables&lt;div&gt;&lt;b&gt;Load:&amp;nbsp;&lt;/b&gt;&lt;/div&gt;&lt;div&gt;&lt;ul&gt;&lt;li&gt;&lt;b&gt;Batch Processing&lt;/b&gt;&lt;/li&gt;&lt;li&gt;&lt;b&gt;Full Load&lt;/b&gt;&lt;/li&gt;&lt;li&gt;&lt;b&gt;Truncate &amp;amp; Insert&lt;/b&gt;&lt;/li&gt;&lt;/ul&gt;&lt;span style=&quot;background-color: transparent; color: light-dark(rgb(0, 0, 0), rgb(255, 255, 255));&quot;&gt;No&lt;/span&gt;&lt;b style=&quot;background-color: transparent; color: light-dark(rgb(0, 0, 0), rgb(255, 255, 255));&quot;&gt; Transformations&lt;/b&gt;&lt;/div&gt;&lt;div&gt;&lt;b&gt;&lt;br&gt;&lt;/b&gt;&lt;b style=&quot;background-color: transparent; color: light-dark(rgb(0, 0, 0), rgb(255, 255, 255));&quot;&gt;Data Model: &lt;/b&gt;&lt;span style=&quot;background-color: transparent; color: light-dark(rgb(0, 0, 0), rgb(255, 255, 255));&quot;&gt;None(as-is&lt;/span&gt;&lt;b style=&quot;background-color: transparent; color: light-dark(rgb(0, 0, 0), rgb(255, 255, 255));&quot;&gt;)&lt;/b&gt;&lt;/div&gt;" style="text;html=1;align=center;verticalAlign=middle;whiteSpace=wrap;rounded=0;" parent="1" vertex="1">
          <mxGeometry x="230" y="510" width="140" height="240" as="geometry" />
        </mxCell>
        <mxCell id="JLLFpMMmMIS0TOfbjZkm-5" value="" style="endArrow=none;html=1;rounded=0;" parent="1" edge="1">
          <mxGeometry width="50" height="50" relative="1" as="geometry">
            <mxPoint x="280" y="510" as="sourcePoint" />
            <mxPoint x="380" y="510" as="targetPoint" />
            <Array as="points">
              <mxPoint x="270" y="510" />
            </Array>
          </mxGeometry>
        </mxCell>
        <mxCell id="JLLFpMMmMIS0TOfbjZkm-6" value="" style="endArrow=none;html=1;rounded=0;" parent="1" edge="1">
          <mxGeometry width="50" height="50" relative="1" as="geometry">
            <mxPoint x="639" y="510" as="sourcePoint" />
            <mxPoint x="739" y="510" as="targetPoint" />
            <Array as="points">
              <mxPoint x="629" y="510" />
            </Array>
          </mxGeometry>
        </mxCell>
        <mxCell id="JLLFpMMmMIS0TOfbjZkm-7" value="" style="image;aspect=fixed;html=1;points=[];align=center;fontSize=12;image=img/lib/azure2/power_platform/PowerBI.svg;" parent="1" vertex="1">
          <mxGeometry x="810" y="200" width="51" height="68" as="geometry" />
        </mxCell>
        <mxCell id="Hw-drdCH7rqFrhcHymYn-1" value="" style="shape=image;verticalLabelPosition=bottom;labelBackgroundColor=default;verticalAlign=top;aspect=fixed;imageAspect=0;editableCssRules=.*;image=data:image/svg+xml,PHN2ZyB4bWxuczp4bGluaz0iaHR0cDovL3d3dy53My5vcmcvMTk5OS94bGluayIgeG1sbnM9Imh0dHA6Ly93d3cudzMub3JnLzIwMDAvc3ZnIiBwcmVzZXJ2ZUFzcGVjdFJhdGlvPSJ4TWlkWU1pZCIgdmVyc2lvbj0iMS4xIiB2aWV3Qm94PSIwIDAgMjU1Ljk5Nzc3MjIxNjc5Njg4IDI1MC43OTI2MzMwNTY2NDA2MiIgaGVpZ2h0PSI3ODMuNzI2OTc4MzAyMDAyIiB3aWR0aD0iNzk5Ljk5MzAzODE3NzQ5MDIiPiYjeGE7ICAgIDxnPiYjeGE7ICAgICAgICA8cG9seWdvbiBwb2ludHM9IjEyMy45Mjk0MTcgMTEuNTkzMjQ0NCAxMjMuOTI5NDE3IDIzLjIzMzgwODMgMTAzLjEwODg5NyAyMy4yMzM4MDgzIDEwMy4xMDg4OTcgMzAuODA0OTA2NyAxMjMuOTI5NDE3IDMwLjgwNDkwNjcgMTIzLjkyOTQxNyA1My45OTEzOTU2IDEzMi4wNjgzNDggNTMuOTkxMzk1NiAxMzIuMDY4MzQ4IDMwLjgwNDkwNjcgMTUzLjQwOTM4MiAzMC44MDQ5MDY3IDE1My40MDkzODIgMjMuMjMzODA4MyAxMzIuMDY4MzQ4IDIzLjIzMzgwODMgMTMyLjA2ODM0OCAwIDEyMy45Mjk0MTcgMCIgZmlsbD0iIzcwOTlBNiI+JiN4YTsmI3hhOzwvcG9seWdvbj4mI3hhOyAgICAgICAgPHBvbHlnb24gcG9pbnRzPSI1NS44ODQxNzAyIDQxLjEyMDUyODMgNTUuODg0MTcwMiA1OC4wMTM1NDE2IDI0LjM2OTQ3MyA1OC4wMTM1NDE2IDI0LjM2OTQ3MyA2OC42MTMwNzk0IDU1Ljg4NDE3MDIgNjguNjEzMDc5NCA1NS44ODQxNzAyIDEwMi45MTk2MTkgNjcuNTcyMDUzMyAxMDIuOTE5NjE5IDY3LjU3MjA1MzMgNjguNjEzMDc5NCA5OS41NTk5NDQxIDY4LjYxMzA3OTQgOTkuNTU5OTQ0MSA1OC4wMTM1NDE2IDY3LjU3MjA1MzMgNTguMDEzNTQxNiA2Ny41NzIwNTMzIDI0LjIyNzUxNDkgNTUuODg0MTcwMiAyNC4yMjc1MTQ5IiBmaWxsPSIjRUI5MTJDIj4mI3hhOyYjeGE7PC9wb2x5Z29uPiYjeGE7ICAgICAgICA8cG9seWdvbiBwb2ludHM9IjE4Ny45NTI1MTggNDEuMTIwNTI4MyAxODcuOTUyNTE4IDU4LjAxMzU0MTYgMTU2LjQzNzgyMSA1OC4wMTM1NDE2IDE1Ni40Mzc4MjEgNjkuMTMzNTkyNCAxODcuOTUyNTE4IDY5LjEzMzU5MjQgMTg3Ljk1MjUxOCAxMDIuOTE5NjE5IDIwMC4xMTM1OTUgMTAyLjkxOTYxOSAyMDAuMTEzNTk1IDY5LjEzMzU5MjQgMjMxLjYyODI5MiA2OS4xMzM1OTI0IDIzMS42MjgyOTIgNTguMDEzNTQxNiAyMDAuMTEzNTk1IDU4LjAxMzU0MTYgMjAwLjExMzU5NSAyNC4yMjc1MTQ5IDE4Ny45NTI1MTggMjQuMjI3NTE0OSIgZmlsbD0iIzU5ODc5QiI+JiN4YTsmI3hhOzwvcG9seWdvbj4mI3hhOyAgICAgICAgPHBvbHlnb24gcG9pbnRzPSIxMjAuOTAwOTc4IDk4LjY2MDg3NjIgMTIwLjkwMDk3OCAxMTcuNTg4NjIyIDg1LjgzNzMyODMgMTE3LjU4ODYyMiA4NS44MzczMjgzIDEzMS42ODk3OTMgMTIwLjkwMDk3OCAxMzEuNjg5NzkzIDEyMC45MDA5NzggMTY5LjU0NTI4NSAxMzUuMDk2Nzg3IDE2OS41NDUyODUgMTM1LjA5Njc4NyAxMzEuNjg5NzkzIDE3MC4xNjA0MzcgMTMxLjY4OTc5MyAxNzAuMTYwNDM3IDExNy41ODg2MjIgMTM1LjA5Njc4NyAxMTcuNTg4NjIyIDEzNS4wOTY3ODcgNzkuNzMzMTMwMiAxMjAuOTAwOTc4IDc5LjczMzEzMDIiIGZpbGw9IiNFODc2MkMiPiYjeGE7JiN4YTs8L3BvbHlnb24+JiN4YTsgICAgICAgIDxwb2x5Z29uIHBvaW50cz0iMjI0LjAwOTg3NCAxMDguMjE5Mzg4IDIyNC4wMDk4NzQgMTIwLjA5NjU0OSAyMDIuNjY4ODQxIDEyMC4wOTY1NDkgMjAyLjY2ODg0MSAxMjkuNzAyMzggMjI0LjAwOTg3NCAxMjkuNzAyMzggMjI0LjAwOTg3NCAxNTMuNDA5MzgyIDIzNC42NTY3MzEgMTUzLjQwOTM4MiAyMzQuNjU2NzMxIDEyOS43MDIzOCAyNTUuOTk3NzY1IDEyOS43MDIzOCAyNTUuOTk3NzY1IDEyMC4wOTY1NDkgMjM0LjY1NjczMSAxMjAuMDk2NTQ5IDIzNC42NTY3MzEgOTYuMzg5NTQ2NyAyMjQuMDA5ODc0IDk2LjM4OTU0NjciIGZpbGw9IiM1QjY1OTEiPiYjeGE7JiN4YTs8L3BvbHlnb24+JiN4YTsgICAgICAgIDxwb2x5Z29uIHBvaW50cz0iMjAuODIwNTIwNiAxMDkuMjYwNDE0IDIwLjgyMDUyMDYgMTIwLjYxNzA2MiAwIDEyMC42MTcwNjIgMCAxMjguNjYxMzU0IDIwLjgyMDUyMDYgMTI4LjY2MTM1NCAyMC44MjA1MjA2IDE1MS4zNzQ2NDkgMjguOTU5NDUxNCAxNTEuMzc0NjQ5IDI4Ljk1OTQ1MTQgMTI4LjY2MTM1NCA1MC4zMDA0ODUxIDEyNy45MDQyNDQgNTAuMzAwNDg1MSAxMjAuNjE3MDYyIDI4Ljk1OTQ1MTQgMTIwLjYxNzA2MiAyOC45NTk0NTE0IDk3LjkwMzc2NjMgMjAuODIwNTIwNiA5Ny45MDM3NjYzIiBmaWxsPSIjNzA5OUE2Ij4mI3hhOyYjeGE7PC9wb2x5Z29uPiYjeGE7ICAgICAgICA8cG9seWdvbiBwb2ludHM9IjU1Ljg4NDE3MDIgMTYyLjczMTI5NyA1NS44ODQxNzAyIDE3OS42MjQzMSAyNC4zNjk0NzMgMTc5LjYyNDMxIDI0LjM2OTQ3MyAxOTAuNzQ0MzYxIDU1Ljg4NDE3MDIgMTkwLjc0NDM2MSA1NS44ODQxNzAyIDIyNC41MzAzODcgNjguMDQ1MjQ3IDIyNC41MzAzODcgNjguMDQ1MjQ3IDE5MC43NDQzNjEgOTkuNTU5OTQ0MSAxOTAuNzQ0MzYxIDk5LjU1OTk0NDEgMTc5LjYyNDMxIDY4LjA0NTI0NyAxNzkuNjI0MzEgNjguMDQ1MjQ3IDE0NS44MzgyODMgNTUuODg0MTcwMiAxNDUuODM4MjgzIiBmaWxsPSIjQzcyMDM1Ij4mI3hhOyYjeGE7PC9wb2x5Z29uPiYjeGE7ICAgICAgICA8cG9seWdvbiBwb2ludHM9IjE4Ny45NTI1MTggMTYyLjczMTI5NyAxODcuOTUyNTE4IDE3OS42MjQzMSAxNTYuNDM3ODIxIDE3OS42MjQzMSAxNTYuNDM3ODIxIDE5MC4yMjM4NDggMTg3Ljk1MjUxOCAxOTAuMjIzODQ4IDE4Ny45NTI1MTggMjI0LjUzMDM4NyAyMDAuMTEzNTk1IDIyNC41MzAzODcgMjAwLjExMzU5NSAxOTAuMjIzODQ4IDIzMS42MjgyOTIgMTkwLjIyMzg0OCAyMzEuNjI4MjkyIDE3OS42MjQzMSAyMDAuMTEzNTk1IDE3OS42MjQzMSAyMDAuMTEzNTk1IDE0NS44MzgyODMgMTg3Ljk1MjUxOCAxNDUuODM4MjgzIiBmaWxsPSIjMUY0NDdFIj4mI3hhOyYjeGE7PC9wb2x5Z29uPiYjeGE7ICAgICAgICA8cG9seWdvbiBwb2ludHM9IjEyMi45MzU3MSAyMDUuNjQ5OTYxIDEyMi45MzU3MSAyMTcuNDc5ODAyIDEwMS41OTQ2NzcgMjE3LjQ3OTgwMiAxMDEuNTk0Njc3IDIyNy4wODU2MzMgMTIyLjkzNTcxIDIyNy4wODU2MzMgMTIyLjkzNTcxIDI1MC43OTI2MzUgMTMzLjU4MjU2OCAyNTAuNzkyNjM1IDEzMy41ODI1NjggMjI3LjA4NTYzMyAxNTQuOTIzNjAxIDIyNy4wODU2MzMgMTU0LjkyMzYwMSAyMTcuNDc5ODAyIDEzMy41ODI1NjggMjE3LjQ3OTgwMiAxMzMuNTgyNTY4IDE5My43NzI4IDEyMi45MzU3MSAxOTMuNzcyOCIgZmlsbD0iIzVCNjU5MSI+JiN4YTsmI3hhOzwvcG9seWdvbj4mI3hhOyAgICA8L2c+JiN4YTs8L3N2Zz4=;" parent="1" vertex="1">
          <mxGeometry x="880" y="200" width="66.12" height="64.8" as="geometry" />
        </mxCell>
        <mxCell id="Hw-drdCH7rqFrhcHymYn-2" value="BI &amp;amp; Reporting" style="text;strokeColor=none;fillColor=none;align=left;verticalAlign=middle;spacingLeft=4;spacingRight=4;overflow=hidden;points=[[0,0.5],[1,0.5]];portConstraint=eastwest;rotatable=0;whiteSpace=wrap;html=1;" parent="1" vertex="1">
          <mxGeometry x="825" y="280" width="110" height="30" as="geometry" />
        </mxCell>
        <mxCell id="LKs59tXzosUvu_nPKFFd-1" value="Ad-Hoc SQL Queries&lt;div&gt;&lt;br&gt;&lt;/div&gt;" style="text;html=1;align=center;verticalAlign=middle;whiteSpace=wrap;rounded=0;" vertex="1" parent="1">
          <mxGeometry x="840" y="369.1" width="60" height="30" as="geometry" />
        </mxCell>
        <mxCell id="LKs59tXzosUvu_nPKFFd-2" value="Machine Learning" style="text;html=1;align=center;verticalAlign=middle;whiteSpace=wrap;rounded=0;" vertex="1" parent="1">
          <mxGeometry x="840" y="460" width="60" height="30" as="geometry" />
        </mxCell>
      </root>
    </mxGraphModel>
  </diagram>
</mxfile>
